<svg width="50" height="45" viewBox="0 0 50 45" fill="none" xmlns="http://www.w3.org/2000/svg">
<path d="M22.3446 22.5289L1.10122 7.17471C-0.367073 6.11346 -0.367073 4.3974 1.10122 3.34745L4.63137 0.795935C6.09966 -0.265312 8.47391 -0.265312 9.92659 0.795935L24.9844 11.6794L40.0422 0.795935C41.5105 -0.265312 43.8847 -0.265312 45.3374 0.795935L48.8988 3.33616C50.3671 4.3974 50.3671 6.11346 48.8988 7.16342L27.6554 22.5176C26.1871 23.5902 23.8129 23.5902 22.3446 22.5289ZM27.6554 44.2055L48.8988 28.8512C50.3671 27.79 50.3671 26.0739 48.8988 25.024L45.3686 22.4725C43.9003 21.4112 41.5261 21.4112 40.0734 22.4725L25 33.3446L9.9422 22.4612C8.47391 21.3999 6.09966 21.3999 4.64699 22.4612L1.10122 25.0127C-0.367073 26.0739 -0.367073 27.79 1.10122 28.84L22.3446 44.1942C23.8129 45.2667 26.1871 45.2667 27.6554 44.2055Z" fill="#FFFF00"/>
</svg>
