<svg width="1343" height="496" viewBox="0 0 1343 496" fill="none" xmlns="http://www.w3.org/2000/svg">
<path d="M541.078 230.764L545.863 231.691L542.104 248H489.076L489.809 243.801L498.549 240.627V187.551L489.418 184.475L490.248 180.422H521.156L520.375 184.621L511.195 187.795V243.117L534.877 240.139L541.078 230.764ZM546.938 205.666L547.816 201.613H566.225V228.762C566.225 234.719 567.38 238.69 569.691 240.676C570.082 241.001 570.473 241.229 570.863 241.359C571.254 241.49 571.71 241.555 572.23 241.555C574.053 241.555 576.104 241.376 578.383 241.018C580.661 240.627 582.566 240.139 584.096 239.553V209.572L576.332 205.715L577.113 201.613H595.863V238.479C596.612 239.748 597.882 240.822 599.672 241.701C601.462 242.58 603.025 243.15 604.359 243.41L603.676 246.34C602.341 246.991 600.469 247.626 598.061 248.244C595.684 248.895 593.487 249.221 591.469 249.221C591.046 248.146 590.264 246.747 589.125 245.021C587.986 243.296 586.83 242.076 585.658 241.359C583.607 243.573 581.068 245.445 578.041 246.975C575.046 248.472 572.003 249.221 568.91 249.221C564.581 249.221 561.081 247.87 558.412 245.168C555.743 242.466 554.408 238.007 554.408 231.789V209.572L546.938 205.666ZM634.096 204.592C630.157 204.982 627.016 206.529 624.672 209.23C623.207 210.988 622.133 213.007 621.449 215.285C620.766 217.531 620.424 219.81 620.424 222.121C620.424 227.46 621.726 232.001 624.33 235.744C625.6 237.6 627.081 239.048 628.773 240.09C630.499 241.132 632.419 241.652 634.535 241.652C636.326 241.652 638.604 241.327 641.371 240.676C644.138 240.025 646.01 239.488 646.986 239.064L647.963 240.627C646.921 241.962 645.538 243.296 643.812 244.631C642.12 245.933 640.134 247.023 637.855 247.902C635.609 248.781 633.266 249.221 630.824 249.221C626.137 249.221 622.117 248.228 618.764 246.242C615.443 244.257 612.921 241.49 611.195 237.941C609.47 234.393 608.607 230.324 608.607 225.734C608.607 220.461 609.73 215.92 611.977 212.111C614.255 208.303 617.299 205.422 621.107 203.469C624.949 201.483 629.197 200.49 633.852 200.49C637.335 200.49 640.346 201.044 642.885 202.15C644.089 202.671 645.115 203.371 645.961 204.25C646.807 205.096 647.23 205.959 647.23 206.838C647.23 207.814 646.791 208.905 645.912 210.109C645.066 211.281 644.057 212.29 642.885 213.137C641.713 213.983 640.72 214.406 639.906 214.406C639.255 214.406 638.523 214.211 637.709 213.82C636.928 213.397 636.244 212.925 635.658 212.404L634.096 204.592ZM652.797 236.232C652.797 233.075 653.367 230.552 654.506 228.664C655.645 226.776 657.533 225.279 660.17 224.172C661.895 223.423 663.995 222.87 666.469 222.512C668.943 222.154 671.368 221.975 673.744 221.975C675.958 221.975 678.074 222.105 680.092 222.365V219.729C680.092 216.766 679.799 214.081 679.213 211.672C678.66 209.23 677.536 207.489 675.844 206.447C675.225 206.057 674.411 205.764 673.402 205.568C672.426 205.373 671.4 205.275 670.326 205.275C669.382 205.275 668.422 205.389 667.445 205.617L665.932 214.211C665.313 214.764 664.613 215.236 663.832 215.627C663.051 215.985 662.383 216.164 661.83 216.164C661.016 216.164 660.007 215.79 658.803 215.041C657.631 214.26 656.605 213.316 655.727 212.209C654.88 211.102 654.457 210.061 654.457 209.084C654.457 208.238 655.01 207.391 656.117 206.545C657.224 205.699 658.526 204.934 660.023 204.25C662.693 203.078 665.867 202.15 669.545 201.467C673.256 200.751 676.088 200.393 678.041 200.393C682.924 200.393 686.456 201.711 688.637 204.348C690.818 206.952 691.908 210.533 691.908 215.09V238.43C693.796 240.839 696.628 242.515 700.404 243.459L699.77 246.291C695.798 248.146 691.599 249.123 687.172 249.221C686.391 247.626 685.561 246.21 684.682 244.973C683.803 243.736 682.712 242.596 681.41 241.555C680.499 242.824 679.245 244.045 677.65 245.217C676.055 246.389 674.265 247.349 672.279 248.098C670.294 248.846 668.259 249.221 666.176 249.221C663.051 249.221 660.479 248.57 658.461 247.268C656.475 245.965 655.027 244.322 654.115 242.336C653.236 240.35 652.797 238.316 652.797 236.232ZM668.471 241.799C668.829 242.124 669.333 242.287 669.984 242.287C671.352 242.287 673.061 242.043 675.111 241.555C677.162 241.066 678.822 240.529 680.092 239.943V225.539C677.26 225.865 674.786 226.304 672.67 226.857C670.554 227.411 668.894 227.997 667.689 228.615C666.485 229.201 665.704 229.706 665.346 230.129C664.825 230.812 664.564 231.87 664.564 233.303C664.564 234.865 664.955 236.525 665.736 238.283C666.518 240.041 667.429 241.213 668.471 241.799ZM727.113 204.738C725.29 204.999 723.321 205.568 721.205 206.447C719.089 207.294 717.396 208.27 716.127 209.377C715.281 210.158 714.857 211.151 714.857 212.355C714.857 213.43 715.248 214.39 716.029 215.236C716.843 216.083 717.999 216.88 719.496 217.629C720.961 218.345 723.093 219.159 725.893 220.07C727.813 220.721 729.457 221.324 730.824 221.877C732.191 222.398 733.445 223.016 734.584 223.732C736.309 224.774 737.693 226.141 738.734 227.834C739.776 229.527 740.297 231.512 740.297 233.791C740.297 237.307 739.369 240.22 737.514 242.531C735.658 244.842 733.217 246.535 730.189 247.609C727.162 248.684 723.858 249.221 720.277 249.221C716.566 249.221 713.393 248.814 710.756 248C708.152 247.154 705.645 245.933 703.236 244.338L705.629 232.57L711.049 233.742L713.246 243.557C715.72 243.557 718.406 243.264 721.303 242.678C724.2 242.059 726.397 241.229 727.895 240.188C728.936 239.504 729.457 238.479 729.457 237.111C729.457 236.167 729.164 235.305 728.578 234.523C727.992 233.71 727.048 232.945 725.746 232.229C724.574 231.577 722.605 230.747 719.838 229.738C719.577 229.641 718.91 229.396 717.836 229.006C716.794 228.583 715.818 228.176 714.906 227.785C714.027 227.395 713.246 227.004 712.562 226.613C707.549 223.749 705.043 219.68 705.043 214.406C705.043 211.281 705.954 208.677 707.777 206.594C709.633 204.478 712.042 202.915 715.004 201.906C717.966 200.897 721.14 200.393 724.525 200.393C728.887 200.393 732.419 201.092 735.121 202.492C736.228 203.111 737.237 203.843 738.148 204.689C739.06 205.503 739.516 206.366 739.516 207.277C739.516 208.286 739.109 209.377 738.295 210.549C737.481 211.721 736.505 212.714 735.365 213.527C734.258 214.341 733.347 214.748 732.631 214.748C732.012 214.748 731.312 214.553 730.531 214.162C729.783 213.739 729.148 213.283 728.627 212.795L727.113 204.738Z" fill="#61DAFB"/>
<path d="M806.557 243.752L805.58 248H774.477L775.209 243.85L783.998 240.725V187.648L774.867 184.377L775.697 180.422H806.264L805.385 184.816L796.498 187.941V210.598H825.502V187.795L816.078 184.572L817.006 180.422H847.572L846.84 184.475L838.002 187.697V240.773L847.23 244.045L846.303 248H815.199L816.029 243.703L825.502 240.578V217.092C815.248 217.613 805.58 217.987 796.498 218.215V240.529L806.557 243.752ZM852.748 226.174C852.748 221.714 853.725 217.515 855.678 213.576C857.631 209.605 860.365 206.415 863.881 204.006C867.396 201.597 871.368 200.393 875.795 200.393C880.092 200.393 883.949 201.239 887.367 202.932C890.785 204.592 893.503 207.147 895.521 210.598C897.54 214.048 898.549 218.345 898.549 223.488C898.549 227.948 897.556 232.163 895.57 236.135C893.585 240.074 890.85 243.247 887.367 245.656C883.884 248.033 880.027 249.221 875.795 249.221C871.4 249.221 867.462 248.391 863.979 246.73C860.528 245.07 857.794 242.531 855.775 239.113C853.757 235.663 852.748 231.35 852.748 226.174ZM878.725 242.482C879.994 242.482 881.166 242.32 882.24 241.994C883.314 241.636 884.161 241.115 884.779 240.432C885.463 239.585 886 238.088 886.391 235.939C886.781 233.758 886.977 231.643 886.977 229.592C886.977 225.067 886.342 221.112 885.072 217.727C883.803 214.309 882.045 211.688 879.799 209.865C877.585 208.042 875.079 207.131 872.279 207.131C869.61 207.131 867.673 207.798 866.469 209.133C865.85 209.947 865.329 211.444 864.906 213.625C864.516 215.773 864.32 217.938 864.32 220.119C864.32 224.156 864.857 227.867 865.932 231.252C867.038 234.637 868.682 237.355 870.863 239.406C873.044 241.457 875.665 242.482 878.725 242.482ZM902.797 205.666L903.676 201.613H922.084V228.762C922.084 234.719 923.24 238.69 925.551 240.676C925.941 241.001 926.332 241.229 926.723 241.359C927.113 241.49 927.569 241.555 928.09 241.555C929.913 241.555 931.964 241.376 934.242 241.018C936.521 240.627 938.425 240.139 939.955 239.553V209.572L932.191 205.715L932.973 201.613H951.723V238.479C952.471 239.748 953.741 240.822 955.531 241.701C957.322 242.58 958.884 243.15 960.219 243.41L959.535 246.34C958.201 246.991 956.329 247.626 953.92 248.244C951.544 248.895 949.346 249.221 947.328 249.221C946.905 248.146 946.124 246.747 944.984 245.021C943.845 243.296 942.689 242.076 941.518 241.359C939.467 243.573 936.928 245.445 933.9 246.975C930.906 248.472 927.862 249.221 924.77 249.221C920.44 249.221 916.941 247.87 914.271 245.168C911.602 242.466 910.268 238.007 910.268 231.789V209.572L902.797 205.666ZM964.174 206.252L964.613 203.859L979.896 201.125L982.582 210.109C984.6 206.626 986.57 204.169 988.49 202.736C990.411 201.271 992.543 200.539 994.887 200.539C995.701 200.539 996.596 200.702 997.572 201.027C998.549 201.32 999.477 201.727 1000.36 202.248C1001.36 202.867 1002.18 203.583 1002.8 204.396C1003.45 205.178 1003.77 205.992 1003.77 206.838C1003.77 207.782 1003.33 208.905 1002.46 210.207C1001.61 211.477 1000.58 212.583 999.379 213.527C998.207 214.439 997.182 214.895 996.303 214.895C995.684 214.895 994.968 214.732 994.154 214.406C993.34 214.048 992.673 213.658 992.152 213.234L991.176 208.107C990.004 208.531 988.637 209.263 987.074 210.305C985.512 211.314 984.226 212.274 983.217 213.186V241.604L996.107 244.387L995.326 248H963.734L964.516 243.996L971.4 241.115V210.256L964.174 206.252ZM1040.15 243.215C1038.52 244.908 1036.52 246.34 1034.14 247.512C1031.8 248.651 1029.23 249.221 1026.43 249.221C1023.14 249.221 1020.08 248.423 1017.25 246.828C1014.42 245.201 1012.11 242.645 1010.32 239.162C1008.56 235.679 1007.68 231.301 1007.68 226.027C1007.68 222.349 1008.3 218.817 1009.54 215.432C1010.77 212.046 1012.56 209.1 1014.91 206.594C1016.66 204.641 1018.73 203.127 1021.11 202.053C1023.52 200.979 1026.02 200.441 1028.63 200.441C1031.39 200.441 1033.92 200.946 1036.2 201.955C1038.51 202.932 1040.57 204.527 1042.4 206.74L1054.21 200.881L1056.36 204.104L1051.97 212.16V264.504L1059.93 267.482L1059.14 271.193H1028.14L1028.92 267.434L1040.15 264.602V243.215ZM1040.15 213.625C1038.95 211.9 1037.17 210.451 1034.83 209.279C1032.52 208.107 1030.12 207.521 1027.65 207.521C1026.15 207.521 1024.95 207.684 1024.04 208.01C1023.16 208.335 1022.44 208.97 1021.89 209.914C1021.04 211.249 1020.42 212.958 1020.03 215.041C1019.64 217.124 1019.45 219.403 1019.45 221.877C1019.45 225.393 1020 228.713 1021.11 231.838C1022.25 234.963 1023.99 237.567 1026.33 239.65C1026.89 240.269 1027.54 240.757 1028.29 241.115C1029.03 241.473 1029.77 241.652 1030.48 241.652C1032.04 241.652 1033.72 241.473 1035.51 241.115C1037.3 240.757 1038.85 240.269 1040.15 239.65V213.625ZM1061 205.666L1061.88 201.613H1080.29V228.762C1080.29 234.719 1081.44 238.69 1083.75 240.676C1084.14 241.001 1084.54 241.229 1084.93 241.359C1085.32 241.49 1085.77 241.555 1086.29 241.555C1088.12 241.555 1090.17 241.376 1092.45 241.018C1094.72 240.627 1096.63 240.139 1098.16 239.553V209.572L1090.39 205.715L1091.18 201.613H1109.93V238.479C1110.67 239.748 1111.94 240.822 1113.73 241.701C1115.52 242.58 1117.09 243.15 1118.42 243.41L1117.74 246.34C1116.4 246.991 1114.53 247.626 1112.12 248.244C1109.75 248.895 1107.55 249.221 1105.53 249.221C1105.11 248.146 1104.33 246.747 1103.19 245.021C1102.05 243.296 1100.89 242.076 1099.72 241.359C1097.67 243.573 1095.13 245.445 1092.1 246.975C1089.11 248.472 1086.07 249.221 1082.97 249.221C1078.64 249.221 1075.14 247.87 1072.47 245.168C1069.81 242.466 1068.47 238.007 1068.47 231.789V209.572L1061 205.666ZM1137.46 192.482C1137.37 192.515 1137.17 192.531 1136.88 192.531C1136.1 192.531 1135.06 192.287 1133.75 191.799C1132.48 191.278 1131.31 190.66 1130.24 189.943C1129.16 189.227 1128.51 188.576 1128.29 187.99C1128.22 187.73 1128.19 187.502 1128.19 187.307C1128.19 186.493 1128.45 185.435 1128.97 184.133C1129.52 182.831 1130.16 181.659 1130.87 180.617C1131.62 179.543 1132.27 178.908 1132.83 178.713C1133.09 178.648 1133.33 178.615 1133.56 178.615C1134.4 178.615 1135.46 178.892 1136.73 179.445C1138 179.966 1139.16 180.601 1140.2 181.35C1141.24 182.066 1141.86 182.684 1142.05 183.205C1142.12 183.465 1142.15 183.677 1142.15 183.84C1142.15 184.654 1141.88 185.712 1141.32 187.014C1140.8 188.316 1140.17 189.504 1139.42 190.578C1138.67 191.652 1138.02 192.287 1137.46 192.482ZM1129.51 241.408V210.256L1122.28 206.203L1122.72 203.908L1141.32 200.881V241.604L1148.74 244.436L1147.96 248H1121.89L1122.62 244.094L1129.51 241.408ZM1153.19 206.203L1153.58 203.908L1168.91 200.881L1171.21 208.791C1174.4 206.252 1177.63 204.234 1180.92 202.736C1184.21 201.206 1187.2 200.441 1189.91 200.441C1193.65 200.441 1196.81 201.776 1199.38 204.445C1201.95 207.082 1203.24 211.525 1203.24 217.775V241.604L1211.1 244.387L1210.32 248H1186L1186.78 244.143L1191.42 241.262V221.096C1191.42 217.971 1191.06 215.415 1190.35 213.43C1189.66 211.411 1188.83 209.995 1187.86 209.182C1187.3 208.758 1186.68 208.547 1186 208.547C1184.47 208.547 1182.19 208.84 1179.16 209.426C1176.14 210.012 1173.71 210.63 1171.89 211.281C1171.92 211.444 1171.97 211.818 1172.04 212.404C1172.13 212.958 1172.18 213.462 1172.18 213.918L1172.23 241.604L1179.65 244.436L1178.82 248H1152.89L1153.68 243.996L1160.37 241.115V210.305L1153.19 206.203Z" fill="#43A0B9"/>
<path d="M492.25 303.362V276.824L487.685 275.213L488.1 273.211H499.281C502.243 273.211 504.896 273.398 507.24 273.772C509.6 274.131 511.643 274.855 513.368 275.945C515.712 277.443 517.413 279.38 518.471 281.756C519.545 284.132 520.082 286.834 520.082 289.861C520.082 292.368 519.748 294.671 519.081 296.771C518.414 298.87 517.38 300.66 515.98 302.142C514.678 303.525 513.108 304.575 511.269 305.291C509.429 305.991 507.476 306.455 505.409 306.683C503.358 306.894 500.998 307 498.329 307H487.562L487.978 304.925L492.25 303.362ZM498.573 304.681C502.024 304.225 504.815 303.484 506.947 302.459C509.079 301.434 510.683 299.928 511.757 297.942C512.847 295.94 513.393 293.287 513.393 289.983C513.393 284.775 511.578 280.918 507.948 278.411C506.923 277.695 505.572 277.085 503.896 276.58C502.219 276.059 500.445 275.677 498.573 275.433V304.681ZM543.788 294.646C543.674 294.939 543.52 295.159 543.324 295.306C543.145 295.436 542.877 295.501 542.519 295.501H529.579C529.726 296.933 530.108 298.284 530.727 299.554C531.361 300.823 532.175 301.849 533.168 302.63C534.161 303.395 535.251 303.777 536.439 303.777C537.449 303.777 538.677 303.606 540.126 303.265C541.591 302.923 542.616 302.638 543.202 302.41L543.69 303.24C543.088 303.989 542.299 304.697 541.322 305.364C540.362 306.032 539.288 306.577 538.1 307C536.911 307.407 535.723 307.61 534.535 307.61C532.615 307.61 530.84 307.203 529.213 306.39C527.602 305.56 526.299 304.266 525.307 302.508C524.314 300.734 523.817 298.512 523.817 295.843C523.817 293.548 524.306 291.44 525.282 289.52C526.275 287.583 527.675 286.045 529.481 284.905C531.288 283.766 533.363 283.196 535.707 283.196C537.481 283.196 539.019 283.554 540.321 284.271C541.623 284.987 542.624 285.963 543.324 287.2C544.024 288.421 544.374 289.788 544.374 291.302C544.374 292.522 544.179 293.637 543.788 294.646ZM539.174 292.571C539.109 291.237 538.808 290.105 538.271 289.178C537.733 288.234 537.025 287.526 536.146 287.054C535.268 286.565 534.307 286.321 533.266 286.321C532.257 286.321 531.581 286.508 531.239 286.883C530.816 287.404 530.434 288.242 530.092 289.397C529.766 290.537 529.579 291.92 529.53 293.548L539.174 292.571ZM537.221 271.429H539.711L540.492 275.506L530.727 281.268L530.116 277.923L537.221 271.429ZM572.646 283.807L572.353 285.442L569.545 286.98L561.562 307L556.996 307.537L548.769 286.932L545.277 285.491L545.57 283.807H558.07L557.704 285.564L555.043 286.834L560.756 301.897L566.029 286.883L562.904 285.516L563.246 283.807H572.646ZM593.837 294.646C593.723 294.939 593.568 295.159 593.373 295.306C593.194 295.436 592.925 295.501 592.567 295.501H579.628C579.774 296.933 580.157 298.284 580.775 299.554C581.41 300.823 582.224 301.849 583.217 302.63C584.21 303.395 585.3 303.777 586.488 303.777C587.497 303.777 588.726 303.606 590.175 303.265C591.64 302.923 592.665 302.638 593.251 302.41L593.739 303.24C593.137 303.989 592.348 304.697 591.371 305.364C590.411 306.032 589.337 306.577 588.148 307C586.96 307.407 585.772 307.61 584.584 307.61C582.663 307.61 580.889 307.203 579.262 306.39C577.65 305.56 576.348 304.266 575.355 302.508C574.363 300.734 573.866 298.512 573.866 295.843C573.866 293.548 574.354 291.44 575.331 289.52C576.324 287.583 577.724 286.045 579.53 284.905C581.337 283.766 583.412 283.196 585.756 283.196C587.53 283.196 589.068 283.554 590.37 284.271C591.672 284.987 592.673 285.963 593.373 287.2C594.073 288.421 594.423 289.788 594.423 291.302C594.423 292.522 594.228 293.637 593.837 294.646ZM589.223 292.571C589.158 291.237 588.856 290.105 588.319 289.178C587.782 288.234 587.074 287.526 586.195 287.054C585.316 286.565 584.356 286.321 583.314 286.321C582.305 286.321 581.63 286.508 581.288 286.883C580.865 287.404 580.482 288.242 580.141 289.397C579.815 290.537 579.628 291.92 579.579 293.548L589.223 292.571ZM596.913 273.675L597.133 272.527L606.435 271.062V303.802L610.243 305.218L609.828 307H596.84L597.23 305.071L600.526 303.704V275.726L596.913 273.675ZM612.587 296.087C612.587 293.857 613.075 291.757 614.052 289.788C615.028 287.802 616.396 286.207 618.153 285.003C619.911 283.799 621.897 283.196 624.11 283.196C626.259 283.196 628.188 283.619 629.896 284.466C631.605 285.296 632.965 286.574 633.974 288.299C634.983 290.024 635.487 292.173 635.487 294.744C635.487 296.974 634.991 299.082 633.998 301.067C633.005 303.037 631.638 304.624 629.896 305.828C628.155 307.016 626.226 307.61 624.11 307.61C621.913 307.61 619.944 307.195 618.202 306.365C616.477 305.535 615.11 304.266 614.101 302.557C613.091 300.831 612.587 298.675 612.587 296.087ZM625.575 304.241C626.21 304.241 626.796 304.16 627.333 303.997C627.87 303.818 628.293 303.558 628.603 303.216C628.944 302.793 629.213 302.044 629.408 300.97C629.604 299.879 629.701 298.821 629.701 297.796C629.701 295.534 629.384 293.556 628.749 291.863C628.114 290.154 627.235 288.844 626.112 287.933C625.006 287.021 623.752 286.565 622.353 286.565C621.018 286.565 620.049 286.899 619.447 287.566C619.138 287.973 618.878 288.722 618.666 289.812C618.471 290.887 618.373 291.969 618.373 293.06C618.373 295.078 618.642 296.933 619.179 298.626C619.732 300.319 620.554 301.678 621.645 302.703C622.735 303.729 624.045 304.241 625.575 304.241ZM653.7 316.814L653.334 318.597H637.685L638.051 316.595L641.444 315.154V288.152L637.855 286.102L638.075 284.954L645.717 283.562L646.962 286.834C648.508 285.727 649.916 284.848 651.186 284.197C652.471 283.546 653.782 283.221 655.116 283.221C656.825 283.221 658.298 283.676 659.535 284.588C660.788 285.499 661.741 286.818 662.392 288.543C663.059 290.268 663.393 292.319 663.393 294.695C663.393 296.925 662.953 299.041 662.074 301.043C661.195 303.029 659.999 304.607 658.485 305.779C657.753 306.349 656.947 306.797 656.068 307.122C655.189 307.448 654.278 307.61 653.334 307.61C652.097 307.61 650.95 307.407 649.892 307C648.834 306.577 647.987 305.942 647.353 305.096V315.398L653.7 316.814ZM647.304 288.323C647.336 288.681 647.353 289.251 647.353 290.032V301.922C648.134 302.622 649.094 303.126 650.233 303.436C651.389 303.729 652.553 303.875 653.725 303.875C654.311 303.875 654.783 303.826 655.141 303.729C655.515 303.631 655.808 303.444 656.02 303.167C656.426 302.744 656.785 301.938 657.094 300.75C657.403 299.546 657.558 298.235 657.558 296.819C657.558 294.915 657.297 293.206 656.776 291.692C656.256 290.162 655.531 288.917 654.604 287.957C654.327 287.648 654.042 287.436 653.749 287.322C653.472 287.208 653.155 287.151 652.797 287.151C652.162 287.151 651.275 287.273 650.136 287.518C649.013 287.745 648.069 288.014 647.304 288.323ZM681.825 316.814L681.459 318.597H665.81L666.176 316.595L669.569 315.154V288.152L665.98 286.102L666.2 284.954L673.842 283.562L675.087 286.834C676.633 285.727 678.041 284.848 679.311 284.197C680.596 283.546 681.907 283.221 683.241 283.221C684.95 283.221 686.423 283.676 687.66 284.588C688.913 285.499 689.866 286.818 690.517 288.543C691.184 290.268 691.518 292.319 691.518 294.695C691.518 296.925 691.078 299.041 690.199 301.043C689.32 303.029 688.124 304.607 686.61 305.779C685.878 306.349 685.072 306.797 684.193 307.122C683.314 307.448 682.403 307.61 681.459 307.61C680.222 307.61 679.075 307.407 678.017 307C676.959 306.577 676.112 305.942 675.478 305.096V315.398L681.825 316.814ZM675.429 288.323C675.461 288.681 675.478 289.251 675.478 290.032V301.922C676.259 302.622 677.219 303.126 678.358 303.436C679.514 303.729 680.678 303.875 681.85 303.875C682.436 303.875 682.908 303.826 683.266 303.729C683.64 303.631 683.933 303.444 684.145 303.167C684.551 302.744 684.91 301.938 685.219 300.75C685.528 299.546 685.683 298.235 685.683 296.819C685.683 294.915 685.422 293.206 684.901 291.692C684.381 290.162 683.656 288.917 682.729 287.957C682.452 287.648 682.167 287.436 681.874 287.322C681.597 287.208 681.28 287.151 680.922 287.151C680.287 287.151 679.4 287.273 678.261 287.518C677.138 287.745 676.194 288.014 675.429 288.323ZM714.882 294.646C714.768 294.939 714.613 295.159 714.418 295.306C714.239 295.436 713.97 295.501 713.612 295.501H700.673C700.819 296.933 701.202 298.284 701.82 299.554C702.455 300.823 703.269 301.849 704.262 302.63C705.255 303.395 706.345 303.777 707.533 303.777C708.542 303.777 709.771 303.606 711.22 303.265C712.685 302.923 713.71 302.638 714.296 302.41L714.784 303.24C714.182 303.989 713.393 304.697 712.416 305.364C711.456 306.032 710.382 306.577 709.193 307C708.005 307.407 706.817 307.61 705.629 307.61C703.708 307.61 701.934 307.203 700.307 306.39C698.695 305.56 697.393 304.266 696.4 302.508C695.408 300.734 694.911 298.512 694.911 295.843C694.911 293.548 695.399 291.44 696.376 289.52C697.369 287.583 698.769 286.045 700.575 284.905C702.382 283.766 704.457 283.196 706.801 283.196C708.575 283.196 710.113 283.554 711.415 284.271C712.717 284.987 713.718 285.963 714.418 287.2C715.118 288.421 715.468 289.788 715.468 291.302C715.468 292.522 715.272 293.637 714.882 294.646ZM710.268 292.571C710.202 291.237 709.901 290.105 709.364 289.178C708.827 288.234 708.119 287.526 707.24 287.054C706.361 286.565 705.401 286.321 704.359 286.321C703.35 286.321 702.675 286.508 702.333 286.883C701.91 287.404 701.527 288.242 701.186 289.397C700.86 290.537 700.673 291.92 700.624 293.548L710.268 292.571ZM717.592 285.833L718.031 283.807H727.235V297.381C727.235 300.359 727.813 302.345 728.969 303.338C729.164 303.501 729.359 303.615 729.555 303.68C729.75 303.745 729.978 303.777 730.238 303.777C731.15 303.777 732.175 303.688 733.314 303.509C734.454 303.313 735.406 303.069 736.171 302.776V287.786L732.289 285.857L732.68 283.807H742.055V302.239C742.429 302.874 743.064 303.411 743.959 303.851C744.854 304.29 745.635 304.575 746.303 304.705L745.961 306.17C745.294 306.495 744.358 306.813 743.153 307.122C741.965 307.448 740.867 307.61 739.857 307.61C739.646 307.073 739.255 306.373 738.686 305.511C738.116 304.648 737.538 304.038 736.952 303.68C735.927 304.786 734.657 305.722 733.144 306.487C731.646 307.236 730.124 307.61 728.578 307.61C726.413 307.61 724.664 306.935 723.329 305.584C721.994 304.233 721.327 302.003 721.327 298.895V287.786L717.592 285.833ZM748.28 286.126L748.5 284.93L756.142 283.562L757.484 288.055C758.493 286.313 759.478 285.084 760.438 284.368C761.399 283.636 762.465 283.27 763.637 283.27C764.044 283.27 764.491 283.351 764.979 283.514C765.468 283.66 765.932 283.864 766.371 284.124C766.876 284.433 767.283 284.791 767.592 285.198C767.917 285.589 768.08 285.996 768.08 286.419C768.08 286.891 767.86 287.452 767.421 288.104C766.998 288.738 766.485 289.292 765.883 289.764C765.297 290.219 764.784 290.447 764.345 290.447C764.035 290.447 763.677 290.366 763.271 290.203C762.864 290.024 762.53 289.829 762.27 289.617L761.781 287.054C761.195 287.265 760.512 287.632 759.73 288.152C758.949 288.657 758.306 289.137 757.802 289.593V303.802L764.247 305.193L763.856 307H748.061L748.451 304.998L751.894 303.558V288.128L748.28 286.126ZM834.389 273.211L833.974 275.53L830.775 276.727L820.888 307L815.15 307.854L808.046 285.589L800.868 307L795.058 307.854L785.536 276.727L781.996 275.53L782.436 273.211H796.718L796.327 275.457L792.543 276.751L799.477 301.556L806.483 280.682L805.214 276.678L801.723 275.408L802.113 273.211H817.006L816.591 275.506L811.928 276.775L819.569 301.556L826.698 276.678L821.84 275.506L822.328 273.211H834.389ZM854.335 294.646C854.221 294.939 854.066 295.159 853.871 295.306C853.692 295.436 853.424 295.501 853.065 295.501H840.126C840.272 296.933 840.655 298.284 841.273 299.554C841.908 300.823 842.722 301.849 843.715 302.63C844.708 303.395 845.798 303.777 846.986 303.777C847.995 303.777 849.224 303.606 850.673 303.265C852.138 302.923 853.163 302.638 853.749 302.41L854.237 303.24C853.635 303.989 852.846 304.697 851.869 305.364C850.909 306.032 849.835 306.577 848.646 307C847.458 307.407 846.27 307.61 845.082 307.61C843.161 307.61 841.387 307.203 839.76 306.39C838.148 305.56 836.846 304.266 835.854 302.508C834.861 300.734 834.364 298.512 834.364 295.843C834.364 293.548 834.853 291.44 835.829 289.52C836.822 287.583 838.222 286.045 840.028 284.905C841.835 283.766 843.91 283.196 846.254 283.196C848.028 283.196 849.566 283.554 850.868 284.271C852.17 284.987 853.171 285.963 853.871 287.2C854.571 288.421 854.921 289.788 854.921 291.302C854.921 292.522 854.726 293.637 854.335 294.646ZM849.721 292.571C849.656 291.237 849.354 290.105 848.817 289.178C848.28 288.234 847.572 287.526 846.693 287.054C845.814 286.565 844.854 286.321 843.812 286.321C842.803 286.321 842.128 286.508 841.786 286.883C841.363 287.404 840.98 288.242 840.639 289.397C840.313 290.537 840.126 291.92 840.077 293.548L849.721 292.571ZM859.315 307.61L858.217 306.17L860.438 302.044V275.701L856.825 273.675L857.045 272.503L866.322 271.062V286.761C867.51 285.784 868.812 284.946 870.229 284.246C871.645 283.546 872.995 283.196 874.281 283.196C876.169 283.196 877.715 283.742 878.92 284.832C880.124 285.923 880.995 287.33 881.532 289.056C882.086 290.781 882.362 292.636 882.362 294.622C882.362 296.478 882.086 298.235 881.532 299.896C880.979 301.539 880.181 302.964 879.14 304.168C877.154 306.463 874.835 307.61 872.182 307.61C870.798 307.61 869.602 307.374 868.593 306.902C867.584 306.414 866.607 305.617 865.663 304.51L859.315 307.61ZM866.322 301.922C867.104 302.605 868.064 303.102 869.203 303.411C870.342 303.72 871.49 303.875 872.646 303.875C873.248 303.875 873.744 303.826 874.135 303.729C874.525 303.615 874.826 303.419 875.038 303.143C875.494 302.736 875.86 301.849 876.137 300.481C876.43 299.098 876.576 297.739 876.576 296.404C876.576 294.679 876.332 293.06 875.844 291.546C875.372 290.032 874.688 288.828 873.793 287.933C873.37 287.428 872.792 287.176 872.06 287.176C871.457 287.176 870.546 287.298 869.325 287.542C868.121 287.77 867.12 288.022 866.322 288.299V301.922Z" fill="#FFFF00"/>
<g filter="url(#filter0_d_2_53)">
<path d="M182 294.49C180.4 290.89 153.667 265.823 141 254.49L182 213.99" stroke="#FFFF00" stroke-width="26"/>
</g>
<g filter="url(#filter1_d_2_53)">
<path d="M383 214.055C384.606 217.653 411.38 242.677 424.064 253.99L383.129 294.555" stroke="#FFFF00" stroke-width="26"/>
</g>
<g filter="url(#filter2_d_2_53)">
<path d="M328.28 306.99L362.495 191.99" stroke="#FFFF00" stroke-width="20"/>
</g>
<g filter="url(#filter3_d_2_53)">
<path d="M284.221 276.945L290.456 278.586L284.467 305L198.827 305L200.057 297.945L214.741 293.434L214.741 202.625L199.401 198.359L200.795 191.469L247.143 191.469L245.831 198.523L230.491 203.035L230.491 296.797L273.557 292.285L284.221 276.945Z" fill="#61DAFB"/>
</g>
<g filter="url(#filter4_d_2_53)">
<path d="M240.829 226.583L282.782 226.583L281.551 233.615C270.848 234.162 256.747 234.513 239.247 234.669L240.829 226.583ZM240.829 243.81L282.782 243.81L281.551 250.841C267.684 251.544 254.5 251.896 242 251.896L239.247 251.896L240.829 243.81Z" fill="#43A0B9"/>
</g>
<g filter="url(#filter5_d_2_53)">
<path d="M291.437 264.701C290.96 256.361 290.722 245.579 290.722 232.354L290.811 208.228C290.93 196.552 290.99 187.587 290.99 181.332L307.789 181.332L305.019 269.526L291.437 264.701ZM290.811 284.984C291.705 284.329 293.432 284.001 295.994 284.001C298.496 284.001 300.998 284.329 303.5 284.984C306.061 285.58 307.699 286.325 308.414 287.218C309.129 288.112 309.486 289.72 309.486 292.043C309.486 294.665 309.188 297.256 308.593 299.817C307.997 302.379 307.223 304.077 306.27 304.911C305.257 305.566 303.47 305.894 300.908 305.894C298.466 305.894 295.994 305.596 293.492 305C290.99 304.345 289.381 303.57 288.667 302.677C288.25 302.141 287.952 301.307 287.773 300.175C287.594 298.983 287.564 297.673 287.684 296.243C287.743 293.86 288.071 291.567 288.667 289.363C289.262 287.159 289.977 285.699 290.811 284.984Z" fill="#43A0B9"/>
</g>
<defs>
<filter id="filter0_d_2_53" x="95.0272" y="177.741" width="125.852" height="150.656" filterUnits="userSpaceOnUse" color-interpolation-filters="sRGB">
<feFlood flood-opacity="0" result="BackgroundImageFix"/>
<feColorMatrix in="SourceAlpha" type="matrix" values="0 0 0 0 0 0 0 0 0 0 0 0 0 0 0 0 0 0 127 0" result="hardAlpha"/>
<feOffset/>
<feGaussianBlur stdDeviation="13.5"/>
<feComposite in2="hardAlpha" operator="out"/>
<feColorMatrix type="matrix" values="0 0 0 0 1 0 0 0 0 1 0 0 0 0 0 0 0 0 0.8 0"/>
<feBlend mode="normal" in2="BackgroundImageFix" result="effect1_dropShadow_2_53"/>
<feBlend mode="normal" in="SourceGraphic" in2="effect1_dropShadow_2_53" result="shape"/>
</filter>
<filter id="filter1_d_2_53" x="344.129" y="180.13" width="125.907" height="150.659" filterUnits="userSpaceOnUse" color-interpolation-filters="sRGB">
<feFlood flood-opacity="0" result="BackgroundImageFix"/>
<feColorMatrix in="SourceAlpha" type="matrix" values="0 0 0 0 0 0 0 0 0 0 0 0 0 0 0 0 0 0 127 0" result="hardAlpha"/>
<feOffset/>
<feGaussianBlur stdDeviation="13.5"/>
<feComposite in2="hardAlpha" operator="out"/>
<feColorMatrix type="matrix" values="0 0 0 0 1 0 0 0 0 1 0 0 0 0 0 0 0 0 0.8 0"/>
<feBlend mode="normal" in2="BackgroundImageFix" result="effect1_dropShadow_2_53"/>
<feBlend mode="normal" in="SourceGraphic" in2="effect1_dropShadow_2_53" result="shape"/>
</filter>
<filter id="filter2_d_2_53" x="291.695" y="162.138" width="107.384" height="174.703" filterUnits="userSpaceOnUse" color-interpolation-filters="sRGB">
<feFlood flood-opacity="0" result="BackgroundImageFix"/>
<feColorMatrix in="SourceAlpha" type="matrix" values="0 0 0 0 0 0 0 0 0 0 0 0 0 0 0 0 0 0 127 0" result="hardAlpha"/>
<feOffset/>
<feGaussianBlur stdDeviation="13.5"/>
<feComposite in2="hardAlpha" operator="out"/>
<feColorMatrix type="matrix" values="0 0 0 0 1 0 0 0 0 1 0 0 0 0 0 0 0 0 0.8 0"/>
<feBlend mode="normal" in2="BackgroundImageFix" result="effect1_dropShadow_2_53"/>
<feBlend mode="normal" in="SourceGraphic" in2="effect1_dropShadow_2_53" result="shape"/>
</filter>
<filter id="filter3_d_2_53" x="171.827" y="164.469" width="145.629" height="167.531" filterUnits="userSpaceOnUse" color-interpolation-filters="sRGB">
<feFlood flood-opacity="0" result="BackgroundImageFix"/>
<feColorMatrix in="SourceAlpha" type="matrix" values="0 0 0 0 0 0 0 0 0 0 0 0 0 0 0 0 0 0 127 0" result="hardAlpha"/>
<feOffset/>
<feGaussianBlur stdDeviation="13.5"/>
<feComposite in2="hardAlpha" operator="out"/>
<feColorMatrix type="matrix" values="0 0 0 0 0.458889 0 0 0 0 0.888933 0 0 0 0 0.983333 0 0 0 0.8 0"/>
<feBlend mode="normal" in2="BackgroundImageFix" result="effect1_dropShadow_2_53"/>
<feBlend mode="normal" in="SourceGraphic" in2="effect1_dropShadow_2_53" result="shape"/>
</filter>
<filter id="filter4_d_2_53" x="212.247" y="199.583" width="97.5352" height="79.3125" filterUnits="userSpaceOnUse" color-interpolation-filters="sRGB">
<feFlood flood-opacity="0" result="BackgroundImageFix"/>
<feColorMatrix in="SourceAlpha" type="matrix" values="0 0 0 0 0 0 0 0 0 0 0 0 0 0 0 0 0 0 127 0" result="hardAlpha"/>
<feOffset/>
<feGaussianBlur stdDeviation="13.5"/>
<feComposite in2="hardAlpha" operator="out"/>
<feColorMatrix type="matrix" values="0 0 0 0 0.124688 0 0 0 0 0.548887 0 0 0 0 0.7875 0 0 0 0.8 0"/>
<feBlend mode="normal" in2="BackgroundImageFix" result="effect1_dropShadow_2_53"/>
<feBlend mode="normal" in="SourceGraphic" in2="effect1_dropShadow_2_53" result="shape"/>
</filter>
<filter id="filter5_d_2_53" x="260.505" y="154.332" width="75.9814" height="178.561" filterUnits="userSpaceOnUse" color-interpolation-filters="sRGB">
<feFlood flood-opacity="0" result="BackgroundImageFix"/>
<feColorMatrix in="SourceAlpha" type="matrix" values="0 0 0 0 0 0 0 0 0 0 0 0 0 0 0 0 0 0 127 0" result="hardAlpha"/>
<feOffset/>
<feGaussianBlur stdDeviation="13.5"/>
<feComposite in2="hardAlpha" operator="out"/>
<feColorMatrix type="matrix" values="0 0 0 0 0.124688 0 0 0 0 0.548887 0 0 0 0 0.7875 0 0 0 0.8 0"/>
<feBlend mode="normal" in2="BackgroundImageFix" result="effect1_dropShadow_2_53"/>
<feBlend mode="normal" in="SourceGraphic" in2="effect1_dropShadow_2_53" result="shape"/>
</filter>
</defs>
</svg>
