<svg width="27" height="22" viewBox="0 0 27 22" fill="none" xmlns="http://www.w3.org/2000/svg">
<g clip-path="url(#clip0_406_75)">
<path d="M13.7109 0.289117C15.7898 0.289117 17.7473 0.700143 19.5835 1.49631L19.8263 1.59904L19.6138 1.7403C19.0979 2.08702 18.6882 2.53646 18.4302 3.05012L18.3543 3.19138L18.2026 3.12717C16.7913 2.56215 15.289 2.2668 13.726 2.2668C7.94448 2.2668 3.2555 6.24763 3.2555 11.1274C3.2555 16.0071 7.92931 19.9879 13.7109 19.9879C19.4924 19.9879 24.1814 16.0071 24.1814 11.1274C24.1814 9.9588 23.9234 8.81591 23.3772 7.73724L23.3013 7.59598L23.4682 7.53177C24.0904 7.33915 24.6367 7.01812 25.0767 6.60719L25.2436 6.42741L25.3499 6.63287C26.1238 8.05827 26.5031 9.57356 26.5031 11.1017C26.5031 17.0729 20.7519 21.9398 13.6957 21.9398C6.63946 21.9398 0.888245 17.0729 0.888245 11.1017C0.888245 5.13043 6.63946 0.263535 13.7109 0.289117ZM13.7109 6.19627C16.9127 6.19627 19.538 8.40499 19.5531 11.1402C19.5531 13.8754 16.9431 16.0842 13.7109 16.0842C10.4787 16.0842 7.86861 13.8754 7.86861 11.1402C7.86861 8.40499 10.4938 6.19627 13.7109 6.19627ZM22.0721 2.1127C23.5471 2.1127 24.7429 3.12457 24.7429 4.37279C24.7429 5.621 23.5471 6.63287 22.0721 6.63287C20.5971 6.63287 19.4014 5.621 19.4014 4.37279C19.4014 3.12457 20.5971 2.1127 22.0721 2.1127Z" fill="#3880FF"/>
</g>
<defs>
<clipPath id="clip0_406_75">
<rect width="25.6149" height="21.6763" fill="white" transform="translate(0.888245 0.289017)"/>
</clipPath>
</defs>
</svg>
