<svg width="406" height="451" viewBox="0 0 406 451" fill="none" xmlns="http://www.w3.org/2000/svg">
<g clip-path="url(#clip0_2_29)">
<path d="M273.824 214.825C258.15 109.349 213.632 28.5719 174.389 34.4033C135.147 40.2348 116.04 130.467 131.714 235.942C147.387 341.418 191.906 422.195 231.148 416.364C270.391 410.533 289.497 320.3 273.824 214.825Z" stroke="#283652" stroke-width="15"/>
<path d="M247.68 283.255C328.852 217.29 374.547 137.906 349.743 105.945C324.939 73.9833 239.029 101.548 157.857 167.513C76.6853 233.477 30.9902 312.861 55.7942 344.823C80.5982 376.784 166.509 349.219 247.68 283.255Z" stroke="#283652" stroke-width="15"/>
<path d="M176.625 293.813C273.471 333.324 363.684 334.718 378.123 296.925C392.562 259.132 325.758 196.465 228.912 156.954C132.067 117.443 41.8533 116.05 27.4146 153.842C12.976 191.635 79.7799 254.302 176.625 293.813Z" stroke="#283652" stroke-width="14"/>
</g>
<defs>
<clipPath id="clip0_2_29">
<rect width="403.707" height="350" fill="white" transform="translate(59.339 450.767) rotate(-98.4523)"/>
</clipPath>
</defs>
</svg>
