<?xml version="1.0" encoding="UTF-8"?>
<svg xmlns="http://www.w3.org/2000/svg" xmlns:xlink="http://www.w3.org/1999/xlink" width="192px" height="192px" viewBox="0 0 192 192" version="1.1">
<defs>
<clipPath id="clip1">
  <path d="M 106 84 L 123 84 L 123 100 L 106 100 Z M 106 84 "/>
</clipPath>
<clipPath id="clip2">
  <path d="M 55.75 121.84375 L 84.25 36 L 172.6875 63.5625 L 144.1875 149.4375 Z M 55.75 121.84375 "/>
</clipPath>
<clipPath id="clip3">
  <path d="M 84 44 L 144 44 L 144 141 L 84 141 Z M 84 44 "/>
</clipPath>
<clipPath id="clip4">
  <path d="M 55.75 121.84375 L 84.25 36 L 172.6875 63.5625 L 144.1875 149.4375 Z M 55.75 121.84375 "/>
</clipPath>
<clipPath id="clip5">
  <path d="M 58 67 L 170 67 L 170 118 L 58 118 Z M 58 67 "/>
</clipPath>
<clipPath id="clip6">
  <path d="M 55.75 121.84375 L 84.25 36 L 172.6875 63.5625 L 144.1875 149.4375 Z M 55.75 121.84375 "/>
</clipPath>
<clipPath id="clip7">
  <path d="M 70 50 L 159 50 L 159 135 L 70 135 Z M 70 50 "/>
</clipPath>
<clipPath id="clip8">
  <path d="M 55.75 121.84375 L 84.25 36 L 172.6875 63.5625 L 144.1875 149.4375 Z M 55.75 121.84375 "/>
</clipPath>
</defs>
<g id="surface1">
<path style=" stroke:none;fill-rule:evenodd;fill:rgb(66.666667%,45.882353%,100%);fill-opacity:1;" d="M 153.15625 41.375 C 138.625 23.59375 115.5625 14.125 90.3125 18.1875 C 49.375 24.8125 18.1875 64.53125 20.65625 106.9375 C 23.125 149.34375 58.3125 178.375 99.25 171.75 C 128.65625 167 153 145.1875 163.5 117.5625 C 150.40625 144.6875 122.21875 160.21875 95.6875 153.1875 C 65.4375 145.15625 48.8125 110.78125 58.5625 76.40625 C 68.28125 42.03125 100.6875 20.6875 130.9375 28.71875 C 139.53125 31 147.0625 35.4375 153.15625 41.375 Z M 153.15625 41.375 "/>
<path style=" stroke:none;fill-rule:nonzero;fill:rgb(6.666667%,4.705882%,95.294118%);fill-opacity:1;" d="M 90.3125 18.1875 L 90.40625 18.78125 Z M 153.15625 41.375 L 152.71875 41.8125 L 153.65625 41 Z M 20.65625 106.9375 L 20.03125 107 Z M 99.25 171.75 L 99.15625 171.15625 Z M 163.5 117.5625 L 164.09375 117.75 L 162.9375 117.3125 Z M 90.40625 18.78125 C 115.4375 14.75 138.25 24.125 152.6875 41.75 L 153.65625 41 C 138.96875 23.03125 115.6875 13.5 90.21875 17.59375 Z M 21.28125 106.90625 C 18.8125 64.78125 49.8125 25.34375 90.40625 18.78125 L 90.21875 17.59375 C 48.9375 24.28125 17.5625 64.3125 20.03125 107 Z M 99.15625 171.15625 C 58.59375 177.71875 23.71875 149 21.28125 106.90625 L 20.03125 107 C 22.53125 149.71875 58 179.03125 99.34375 172.34375 Z M 162.90625 117.34375 C 152.5 144.8125 128.28125 166.46875 99.15625 171.15625 L 99.34375 172.34375 C 129 167.5625 153.53125 145.5625 164.09375 117.75 Z M 95.53125 153.75 C 122.40625 160.90625 150.875 145.125 164.0625 117.8125 L 162.9375 117.3125 C 149.9375 144.21875 122.03125 159.5625 95.875 152.59375 Z M 57.96875 76.25 C 48.15625 110.84375 64.875 145.625 95.53125 153.75 L 95.875 152.59375 C 66.03125 144.6875 49.5 110.71875 59.15625 76.5625 Z M 131.09375 28.125 C 100.4375 20 67.75 41.65625 57.96875 76.25 L 59.15625 76.5625 C 68.8125 42.4375 100.9375 21.375 130.78125 29.3125 Z M 153.59375 40.96875 C 147.40625 34.9375 139.8125 30.46875 131.09375 28.125 L 130.78125 29.3125 C 139.28125 31.5625 146.6875 35.9375 152.71875 41.8125 Z M 153.59375 40.96875 "/>
<g clip-path="url(#clip1)" clip-rule="nonzero">
<g clip-path="url(#clip2)" clip-rule="nonzero">
<path style=" stroke:none;fill-rule:nonzero;fill:rgb(6.666667%,4.705882%,95.294118%);fill-opacity:1;" d="M 106.1875 90.21875 L 112.3125 90.1875 L 114.1875 84.5 L 116.09375 90.15625 L 122.25 90.15625 L 117.28125 93.65625 L 119.1875 99.3125 L 114.21875 95.84375 L 109.28125 99.375 L 111.15625 93.6875 Z M 106.1875 90.21875 "/>
</g>
</g>
<g clip-path="url(#clip3)" clip-rule="nonzero">
<g clip-path="url(#clip4)" clip-rule="nonzero">
<path style="fill:none;stroke-width:0.2;stroke-linecap:butt;stroke-linejoin:miter;stroke:rgb(6.666667%,4.705882%,95.294118%);stroke-opacity:1;stroke-miterlimit:4;" d="M 21.373034 16.395833 C 22.589017 12.614583 22.261055 9.130208 20.641427 8.609375 C 19.026844 8.088542 16.726064 10.729167 15.510082 14.510417 C 14.2941 18.286458 14.622062 21.776042 16.24169 22.296875 C 17.856272 22.817708 20.157052 20.177083 21.373034 16.395833 Z M 21.373034 16.395833 " transform="matrix(6.193552,0,0,6,0,0)"/>
</g>
</g>
<g clip-path="url(#clip5)" clip-rule="nonzero">
<g clip-path="url(#clip6)" clip-rule="nonzero">
<path style="fill:none;stroke-width:0.2;stroke-linecap:butt;stroke-linejoin:miter;stroke:rgb(6.666667%,4.705882%,95.294118%);stroke-opacity:1;stroke-miterlimit:4;" d="M 19.178211 18.1875 C 23.456855 17.479167 26.595199 15.677083 26.191554 14.166667 C 25.782863 12.65625 21.983548 12.010417 17.704905 12.71875 C 13.426262 13.427083 10.287917 15.223958 10.691563 16.734375 C 11.100254 18.244792 14.899568 18.895833 19.178211 18.1875 Z M 19.178211 18.1875 " transform="matrix(6.193552,0,0,6,0,0)"/>
</g>
</g>
<g clip-path="url(#clip7)" clip-rule="nonzero">
<g clip-path="url(#clip8)" clip-rule="nonzero">
<path style="fill:none;stroke-width:0.2;stroke-linecap:butt;stroke-linejoin:miter;stroke:rgb(6.666667%,4.705882%,95.294118%);stroke-opacity:1;stroke-miterlimit:4;" d="M 16.246735 17.244792 C 19.309396 20.3125 22.775703 22 23.98664 21.010417 C 25.197576 20.020833 23.699042 16.729167 20.636381 13.661458 C 17.57372 10.588542 14.107414 8.901042 12.896477 9.890625 C 11.68554 10.880208 13.184074 14.171875 16.246735 17.244792 Z M 16.246735 17.244792 " transform="matrix(6.193552,0,0,6,0,0)"/>
</g>
</g>
</g>
</svg>
